# xmcd
#
# Track frame offsets: 
#        150
#        19735
#        37893
#        54241
#        65801
#        80957
#        97568
#        113028
#        134873
#        146451
#        158970
#        178326
#        190893
#        203061
#        214622
#        229283
#        248871
#
# Disc length: 3568 seconds
#
# Revision: 0
# Processed by: cddbd v1.5.2PL0 Copyright (c) Steve Scherf et al.
# Submitted via: ExactAudioCopy v0.90b4
#
DISCID=f40dee11
DTITLE=Various Artist - Country Music Messe Berlin 2009 CD2
DYEAR=2009
DGENRE=Country
TTITLE0=Cody Jinks - Cast no stones
TTITLE1=Country Delight - Blue, blue sky
TTITLE2=Liz Talley - Bump bounce boogie
TTITLE3=Roland Heirich and Die Rumtreiber - 400 Kilometer bis nach Essen
TTITLE4=Scarlett - Eyes of the highway
TTITLE5=Bluegrass Breakdown - Back on the road
TTITLE6=The Lennerockers - Can`t fall in love tonight
TTITLE7=Westend - Ich wollt`t schon immer mit der Harley...
TTITLE8=Blue Steel - I wanna be free
TTITLE9=Cash Carter Tribute - Long legged guitar picking man
TTITLE10=SongDogs - Desire
TTITLE11=Tex Robinson - My broken world
TTITLE12=Hannes and The Blue Vinyl Freaks - Dance baby world
TTITLE13=Heiko Ahrend - Auf dem Rummelplatz
TTITLE14=Hermann Lammers Meyer - The heart of a man
TTITLE15=The Hunters - Give me some time (to say goodbye)
TTITLE16=Michael Lonstar - A long haul
EXTD=
EXTT0=
EXTT1=
EXTT2=
EXTT3=
EXTT4=
EXTT5=
EXTT6=
EXTT7=
EXTT8=
EXTT9=
EXTT10=
EXTT11=
EXTT12=
EXTT13=
EXTT14=
EXTT15=
EXTT16=
PLAYORDER=
